<svg width="17" height="17" viewBox="0 0 17 17" fill="none" xmlns="http://www.w3.org/2000/svg">
<path d="M4.39092 0.118088C2.26869 0.118088 0.540253 1.87044 0.540253 4.02203V12.6107C0.540253 14.7623 2.26869 16.5147 4.39092 16.5147H12.8624C14.9846 16.5147 16.7131 14.7623 16.7131 12.6107V4.02203C16.7131 1.87044 14.9846 0.118088 12.8624 0.118088H4.39092ZM4.00585 4.80282H13.2475C13.3168 4.80282 13.3821 4.81075 13.4437 4.83027L9.65851 8.66407C9.08861 9.24185 8.16093 9.24185 7.59103 8.66407L3.80956 4.83027C3.87117 4.81075 3.93654 4.80282 4.00585 4.80282ZM3.26279 5.3846L6.15831 8.31638L3.26279 11.2482C3.24354 11.1857 3.23572 11.1194 3.23572 11.0491V5.58361C3.23572 5.51334 3.24354 5.44707 3.26279 5.3846ZM13.9905 5.3846C14.0098 5.44707 14.0176 5.51334 14.0176 5.58361V11.0491C14.0176 11.1194 14.0098 11.1857 13.9905 11.2482L11.0912 8.31638L13.9905 5.3846ZM6.70132 8.8669L7.04427 9.2184C7.4794 9.65955 8.053 9.87796 8.62289 9.87796C9.19664 9.87796 9.76639 9.65955 10.2015 9.2184L10.5482 8.8669L13.4437 11.8025C13.3821 11.822 13.3168 11.8299 13.2475 11.8299H4.00585C3.93654 11.8299 3.87117 11.822 3.80956 11.8025L6.70132 8.8669Z" fill="#1A1A1A"/>
</svg>
