<svg width="19" height="19" viewBox="0 0 19 19" fill="none" xmlns="http://www.w3.org/2000/svg">
<path d="M9.49999 0.399994C4.48239 0.399994 0.399994 4.48239 0.399994 9.49999C0.399994 14.5176 4.48239 18.6 9.49999 18.6C14.5176 18.6 18.6 14.5176 18.6 9.49999C18.6 4.48239 14.5176 0.399994 9.49999 0.399994ZM7.1662 3.19999H11.8324C14.0199 3.19999 15.8 4.9794 15.8 7.1662V11.8324C15.8 14.0199 14.0206 15.8 11.8338 15.8H7.16757C4.98007 15.8 3.19999 14.0206 3.19999 11.8338V7.16757C3.19999 4.98007 4.9794 3.19999 7.1662 3.19999ZM7.1662 4.59999C5.7515 4.59999 4.59999 5.75217 4.59999 7.16757V11.8338C4.59999 13.2485 5.75217 14.4 7.16757 14.4H11.8338C13.2485 14.4 14.4 13.2478 14.4 11.8324V7.1662C14.4 5.7515 13.2478 4.59999 11.8324 4.59999H7.1662ZM12.7676 5.7662C13.0252 5.7662 13.2338 5.97482 13.2338 6.23242C13.2338 6.49002 13.0252 6.69999 12.7676 6.69999C12.51 6.69999 12.3 6.49002 12.3 6.23242C12.3 5.97482 12.51 5.7662 12.7676 5.7662ZM9.49999 5.99999C11.4299 5.99999 13 7.57009 13 9.49999C13 11.4299 11.4299 13 9.49999 13C7.57009 13 5.99999 11.4299 5.99999 9.49999C5.99999 7.57009 7.57009 5.99999 9.49999 5.99999ZM9.49999 7.39999C8.94304 7.39999 8.40889 7.62124 8.01507 8.01507C7.62124 8.40889 7.39999 8.94304 7.39999 9.49999C7.39999 10.0569 7.62124 10.5911 8.01507 10.9849C8.40889 11.3787 8.94304 11.6 9.49999 11.6C10.0569 11.6 10.5911 11.3787 10.9849 10.9849C11.3787 10.5911 11.6 10.0569 11.6 9.49999C11.6 8.94304 11.3787 8.40889 10.9849 8.01507C10.5911 7.62124 10.0569 7.39999 9.49999 7.39999Z" fill="#1A1A1A"/>
</svg>
