<?xml version="1.0" encoding="UTF-8" standalone="no"?>
<!-- Created with Inkscape (http://www.inkscape.org/) -->

<svg
   version="1.1"
   id="svg1"
   width="18.999996"
   height="16.965408"
   viewBox="0 0 18.999996 16.965408"
   xmlns="http://www.w3.org/2000/svg"
   xmlns:svg="http://www.w3.org/2000/svg">
  <defs
     id="defs1" />
  <g
     id="g1"
     transform="translate(-10.360364,-38.073754)">
    <path
       style="fill:#010101;stroke:none;stroke-width:0.0278466"
       d="m 17.202909,41.42446 c 2.098353,-0.282565 4.227947,-0.185643 6.349011,-0.185643 -0.108209,-0.856226 -0.29841,-1.622438 -0.934522,-2.258549 -1.368506,-1.368507 -3.710878,-1.150044 -4.839367,0.402113 -0.439495,0.604495 -0.575122,1.311851 -0.575122,2.042079 m -3.675743,6.68317 c 0.07638,0.966502 0.48131,1.949811 1.077277,2.710396 0.251589,0.321083 0.84042,0.672098 0.979527,1.040148 0.316319,0.83691 -0.366696,1.994303 0.290212,2.746408 0.522364,0.598063 2.239248,0.579122 2.710311,-0.07383 0.327747,-0.454298 0.214951,-1.14264 0.214951,-1.67065 h 4.195545 c 0,0.53822 -0.121782,1.255173 0.237269,1.707779 0.519806,0.655246 2.360218,0.635522 2.793792,-0.111243 0.306714,-0.528271 0.162008,-1.342856 0.162008,-1.930694 0,-0.254661 -0.07035,-0.6099 0.116887,-0.810529 0.23925,-0.256356 0.674415,-0.828834 0.997118,-0.949246 0.643123,-0.239974 1.354724,0.238869 1.847986,-0.468491 0.07771,-0.111446 0.132019,-0.239283 0.165703,-0.370745 0.07975,-0.311243 0.02825,-0.682773 0.02825,-1.002475 v -1.967822 c 0,-0.392068 0.03277,-0.792012 -0.235005,-1.113718 -0.164356,-0.19746 -0.395722,-0.346601 -0.656085,-0.367964 -0.165128,-0.01355 -0.400699,0.04589 -0.549024,-0.04163 -0.168966,-0.09969 -0.247021,-0.392713 -0.342496,-0.555899 -0.234997,-0.401658 -0.704243,-0.746412 -0.888166,-1.150991 -0.06904,-0.151866 0.02922,-0.368436 0.06707,-0.519802 0.119804,-0.479216 0.651255,-1.620334 0.0418,-1.91889 -0.173021,-0.08476 -0.407098,-0.04893 -0.594031,-0.04893 -0.630857,0 -1.256526,0.162279 -1.782178,0.520863 -0.211896,0.144549 -0.441884,0.483145 -0.684074,0.549223 -0.158201,0.04316 -0.344409,-0.02203 -0.504045,-0.02902 -0.369904,-0.0162 -0.743595,-0.0014 -1.113862,-0.0014 -1.718437,0 -3.682733,-0.268761 -5.309407,0.388104 -1.081741,0.436816 -2.01008,1.233159 -2.588581,2.248035 -0.213851,0.375162 -0.380043,0.773967 -0.503473,1.188119 -0.04675,0.156868 -0.05624,0.370585 -0.251163,0.402915 -0.291143,0.04829 -0.843656,0.07532 -1.112229,-0.05289 -0.35301,-0.168541 -0.532589,-0.604914 -0.302446,-0.943576 0.289002,-0.425275 0.748767,-0.210576 1.118731,-0.451045 0.542932,-0.352894 0.405423,-1.251984 -0.222228,-1.420288 -1.833183,-0.491563 -3.1282251,1.786481 -2.334669,3.281681 0.615723,1.160131 1.775697,1.188119 2.928729,1.188119 m 10.618813,-2.103703 c 0.988549,-0.190503 1.37006,1.354591 0.371287,1.534539 -1.006203,0.181287 -1.37333,-1.341437 -0.371287,-1.534539 z"
       id="path1" />
  </g>
</svg>
